<svg width="512" height="512" viewBox="0 0 512 512" xmlns="http://www.w3.org/2000/svg">
  <!-- Background -->
  <rect width="512" height="512" rx="64" fill="#8b5cf6"/>
  
  <!-- Calculator body -->
  <rect x="80" y="80" width="352" height="352" rx="32" fill="#ffffff" stroke="#e5e7eb" stroke-width="2"/>
  
  <!-- Display screen -->
  <rect x="112" y="112" width="288" height="80" rx="8" fill="#f3f4f6" stroke="#d1d5db" stroke-width="1"/>
  
  <!-- Display text -->
  <text x="384" y="165" font-family="monospace" font-size="32" font-weight="bold" fill="#374151" text-anchor="end">€310K</text>
  
  <!-- Calculator buttons grid -->
  <!-- Row 1 -->
  <rect x="112" y="216" width="56" height="40" rx="6" fill="#f9fafb" stroke="#e5e7eb" stroke-width="1"/>
  <text x="140" y="241" font-family="sans-serif" font-size="16" font-weight="600" fill="#374151" text-anchor="middle">C</text>
  
  <rect x="184" y="216" width="56" height="40" rx="6" fill="#f9fafb" stroke="#e5e7eb" stroke-width="1"/>
  <text x="212" y="241" font-family="sans-serif" font-size="16" font-weight="600" fill="#374151" text-anchor="middle">±</text>
  
  <rect x="256" y="216" width="56" height="40" rx="6" fill="#f9fafb" stroke="#e5e7eb" stroke-width="1"/>
  <text x="284" y="241" font-family="sans-serif" font-size="16" font-weight="600" fill="#374151" text-anchor="middle">%</text>
  
  <rect x="328" y="216" width="56" height="40" rx="6" fill="#8b5cf6" stroke="#7c3aed" stroke-width="1"/>
  <text x="356" y="241" font-family="sans-serif" font-size="16" font-weight="600" fill="#ffffff" text-anchor="middle">÷</text>
  
  <!-- Row 2 -->
  <rect x="112" y="272" width="56" height="40" rx="6" fill="#ffffff" stroke="#e5e7eb" stroke-width="1"/>
  <text x="140" y="297" font-family="sans-serif" font-size="16" font-weight="600" fill="#374151" text-anchor="middle">7</text>
  
  <rect x="184" y="272" width="56" height="40" rx="6" fill="#ffffff" stroke="#e5e7eb" stroke-width="1"/>
  <text x="212" y="297" font-family="sans-serif" font-size="16" font-weight="600" fill="#374151" text-anchor="middle">8</text>
  
  <rect x="256" y="272" width="56" height="40" rx="6" fill="#ffffff" stroke="#e5e7eb" stroke-width="1"/>
  <text x="284" y="297" font-family="sans-serif" font-size="16" font-weight="600" fill="#374151" text-anchor="middle">9</text>
  
  <rect x="328" y="272" width="56" height="40" rx="6" fill="#8b5cf6" stroke="#7c3aed" stroke-width="1"/>
  <text x="356" y="297" font-family="sans-serif" font-size="16" font-weight="600" fill="#ffffff" text-anchor="middle">×</text>
  
  <!-- Row 3 -->
  <rect x="112" y="328" width="56" height="40" rx="6" fill="#ffffff" stroke="#e5e7eb" stroke-width="1"/>
  <text x="140" y="353" font-family="sans-serif" font-size="16" font-weight="600" fill="#374151" text-anchor="middle">4</text>
  
  <rect x="184" y="328" width="56" height="40" rx="6" fill="#ffffff" stroke="#e5e7eb" stroke-width="1"/>
  <text x="212" y="353" font-family="sans-serif" font-size="16" font-weight="600" fill="#374151" text-anchor="middle">5</text>
  
  <rect x="256" y="328" width="56" height="40" rx="6" fill="#ffffff" stroke="#e5e7eb" stroke-width="1"/>
  <text x="284" y="353" font-family="sans-serif" font-size="16" font-weight="600" fill="#374151" text-anchor="middle">6</text>
  
  <rect x="328" y="328" width="56" height="40" rx="6" fill="#8b5cf6" stroke="#7c3aed" stroke-width="1"/>
  <text x="356" y="353" font-family="sans-serif" font-size="16" font-weight="600" fill="#ffffff" text-anchor="middle">-</text>
  
  <!-- Row 4 -->
  <rect x="112" y="384" width="56" height="40" rx="6" fill="#ffffff" stroke="#e5e7eb" stroke-width="1"/>
  <text x="140" y="409" font-family="sans-serif" font-size="16" font-weight="600" fill="#374151" text-anchor="middle">1</text>
  
  <rect x="184" y="384" width="56" height="40" rx="6" fill="#ffffff" stroke="#e5e7eb" stroke-width="1"/>
  <text x="212" y="409" font-family="sans-serif" font-size="16" font-weight="600" fill="#374151" text-anchor="middle">2</text>
  
  <rect x="256" y="384" width="56" height="40" rx="6" fill="#ffffff" stroke="#e5e7eb" stroke-width="1"/>
  <text x="284" y="409" font-family="sans-serif" font-size="16" font-weight="600" fill="#374151" text-anchor="middle">3</text>
  
  <rect x="328" y="384" width="56" height="40" rx="6" fill="#8b5cf6" stroke="#7c3aed" stroke-width="1"/>
  <text x="356" y="409" font-family="sans-serif" font-size="16" font-weight="600" fill="#ffffff" text-anchor="middle">+</text>
  
  <!-- Home icon in corner to indicate mortgage -->
  <g transform="translate(360, 140) scale(0.8)">
    <path d="M10 20v-6h4v6h5v-8h3L12 3 2 12h3v8z" fill="#8b5cf6"/>
  </g>
</svg>